<svg xmlns="http://www.w3.org/2000/svg" width="9.287" height="10.607" viewBox="0 0 9.287 10.607">
  <g id="Gruppe_11" data-name="Gruppe 11" transform="translate(0.001)">
    <g id="Gruppe_7" data-name="Gruppe 7" transform="translate(0 0)">
      <path id="Pfad_219" data-name="Pfad 219" d="M1.857,9.538A4.637,4.637,0,0,0,3.33,10.673a4.117,4.117,0,0,0,3.608,0A4.638,4.638,0,0,0,8.412,9.538,5.372,5.372,0,0,0,9.4,7.856a6.008,6.008,0,0,0,0-4.122,5.372,5.372,0,0,0-.993-1.683A4.637,4.637,0,0,0,6.939.917a4.117,4.117,0,0,0-3.608,0A4.637,4.637,0,0,0,1.857,2.052,5.372,5.372,0,0,0,.864,3.734a6.009,6.009,0,0,0,0,4.122A5.373,5.373,0,0,0,1.857,9.538ZM5.134,1.274A4.268,4.268,0,0,1,9.092,5.795a4.268,4.268,0,0,1-3.958,4.521A4.268,4.268,0,0,1,1.177,5.795,4.268,4.268,0,0,1,5.134,1.274Z" transform="translate(-0.49 -0.491)" fill="#fff"/>
      <path id="Pfad_220" data-name="Pfad 220" d="M4.644,10.608a4.126,4.126,0,0,1-1.808-.417A4.647,4.647,0,0,1,1.36,9.055,5.382,5.382,0,0,1,.365,7.369a6.018,6.018,0,0,1,0-4.129A5.382,5.382,0,0,1,1.36,1.554,4.646,4.646,0,0,1,2.836.418a4.127,4.127,0,0,1,3.616,0A4.647,4.647,0,0,1,7.928,1.554,5.382,5.382,0,0,1,8.923,3.24a6.018,6.018,0,0,1,0,4.129,5.382,5.382,0,0,1-.995,1.686,4.648,4.648,0,0,1-1.476,1.136A4.126,4.126,0,0,1,4.644,10.608Zm0-10.589a4.111,4.111,0,0,0-1.8.416A4.631,4.631,0,0,0,1.371,1.567,5.364,5.364,0,0,0,.38,3.247a6,6,0,0,0,0,4.115,5.364,5.364,0,0,0,.992,1.68,4.631,4.631,0,0,0,1.471,1.132,4.113,4.113,0,0,0,3.6,0A4.631,4.631,0,0,0,7.917,9.042a5.364,5.364,0,0,0,.992-1.68,6,6,0,0,0,0-4.115,5.363,5.363,0,0,0-.992-1.68A4.631,4.631,0,0,0,6.446.435,4.111,4.111,0,0,0,4.644.019Zm0,9.816A3.711,3.711,0,0,1,1.839,8.508,4.844,4.844,0,0,1,.677,5.3,4.844,4.844,0,0,1,1.839,2.1,3.711,3.711,0,0,1,4.644.774,3.711,3.711,0,0,1,7.449,2.1,4.844,4.844,0,0,1,8.611,5.3a4.844,4.844,0,0,1-1.162,3.2A3.711,3.711,0,0,1,4.644,9.835Zm0-9.043A3.7,3.7,0,0,0,1.85,2.114,4.825,4.825,0,0,0,.693,5.3,4.825,4.825,0,0,0,1.85,8.5,3.7,3.7,0,0,0,4.644,9.817,3.7,3.7,0,0,0,7.438,8.5,4.825,4.825,0,0,0,8.6,5.3,4.825,4.825,0,0,0,7.438,2.114,3.7,3.7,0,0,0,4.644.792Z" transform="translate(0 -0.001)" fill="#fff"/>
    </g>
    <g id="Gruppe_8" data-name="Gruppe 8" transform="translate(1.661 3.124)">
      <path id="Pfad_221" data-name="Pfad 221" d="M140.693,185.063a.411.411,0,0,0,.581,0l3.518-3.518a.411.411,0,0,0-.581-.581l-3.228,3.228-1.316-1.316a.411.411,0,0,0-.581.581Z" transform="translate(-138.957 -180.833)" fill="#fff"/>
      <path id="Pfad_222" data-name="Pfad 222" d="M140.5,184.7a.418.418,0,0,1-.3-.123l-1.607-1.607a.421.421,0,1,1,.595-.595l1.309,1.309,3.221-3.221a.421.421,0,1,1,.595.595l-3.518,3.518A.417.417,0,0,1,140.5,184.7Zm-1.607-2.429a.4.4,0,0,0-.284.685l1.607,1.607a.4.4,0,0,0,.568,0l3.518-3.518a.4.4,0,1,0-.568-.568l-3.234,3.234-1.323-1.323A.4.4,0,0,0,138.9,182.273Z" transform="translate(-138.477 -180.342)" fill="#fff"/>
    </g>
  </g>
</svg>
