<svg xmlns="http://www.w3.org/2000/svg" width="24.635" height="23.165" viewBox="0 0 24.635 23.165">
  <g id="forward" transform="translate(0 -1.566)">
    <path id="Pfad_236" data-name="Pfad 236" d="M15.119,9.644V3.99l9.372,9.423-9.372,9.423V17.183S6.8,15.168,1.111,24.721A13.822,13.822,0,0,1,6.044,12.147S8.92,9.457,15.119,9.644Z" transform="translate(-0.518 -1.286)" fill="#fa5d56"/>
    <path id="Pfad_237" data-name="Pfad 237" d="M.368,24.731.133,23.524A14.423,14.423,0,0,1,5.226,10.5c.095-.09,2.87-2.621,8.763-2.621h.143V1.566l10.5,10.561-10.5,10.561v-6.4a9.954,9.954,0,0,0-1.441-.1c-2.7,0-7.817.973-11.694,7.487ZM13.989,8.817c-5.526,0-8.117,2.362-8.143,2.386a13.465,13.465,0,0,0-4.9,10.816c5.8-8.474,13.667-6.6,13.771-6.579l.359.087v4.886l8.241-8.286L15.07,3.841v5l-.483-.014C14.384,8.82,14.185,8.817,13.989,8.817Z" transform="translate(0)" fill="#fa5d56"/>
  </g>
</svg>
